<mxfile host="app.diagrams.net" modified="2021-04-13T08:08:44.995Z" agent="5.0 (Windows NT 10.0; Win64; x64) AppleWebKit/537.36 (KHTML, like Gecko) Chrome/88.0.4324.182 Safari/537.36" etag="bgZyR3Ax8lJvR4Mbbwkh" version="14.1.2" type="github">
  <diagram id="cxZ4Wf8fFvIGyzoQvPej" name="Page-1">
    <mxGraphModel dx="1151" dy="673" grid="1" gridSize="10" guides="1" tooltips="1" connect="1" arrows="1" fold="1" page="1" pageScale="1" pageWidth="827" pageHeight="1169" math="0" shadow="0">
      <root>
        <mxCell id="0" />
        <mxCell id="1" parent="0" />
        <mxCell id="alDOkXqQqNP3kKfB5nvX-1" value="&lt;font face=&quot;calibri, sans-serif&quot;&gt;&lt;span style=&quot;font-size: 14px&quot;&gt;&lt;b&gt;系&lt;br&gt;统&lt;br&gt;安&lt;br&gt;全&lt;br&gt;保&lt;br&gt;障&lt;br&gt;体&lt;br&gt;系&lt;/b&gt;&lt;/span&gt;&lt;/font&gt;" style="rounded=0;whiteSpace=wrap;html=1;" vertex="1" parent="1">
          <mxGeometry x="120" y="80" width="70" height="470" as="geometry" />
        </mxCell>
      </root>
    </mxGraphModel>
  </diagram>
</mxfile>
